<?xml version="1.0" encoding="UTF-8"?>
<!DOCTYPE svg PUBLIC "-//W3C//DTD SVG 1.1//EN" "http://www.w3.org/Graphics/SVG/1.1/DTD/svg11.dtd">
<svg version="1.1" xmlns="http://www.w3.org/2000/svg" xmlns:xlink="http://www.w3.org/1999/xlink" x="0" y="0" width="662" height="662" viewBox="0, 0, 662, 662">
  <defs>
    <clipPath id="Clip_1">
      <path d="M0.06,0.335 L661.664,0.335 L661.664,662 L0.06,662 z"/>
    </clipPath>
  </defs>
  <g id="Layer_1">
    <g clip-path="url(#Clip_1)">
      <path d="M0.06,0.335 L661.664,0.335 L661.664,662 L0.06,662 z" fill="#676969"/>
      <path d="M330.762,337.232 L328.831,337.232 L329.796,339.231 L330.762,337.232 z M332.022,304.64 L339.263,319.629 L346.504,304.64 L332.022,304.64 z M335.746,287.712 L323.845,287.712 L329.796,300.032 L335.746,287.712 z M631.958,282.781 L645.36,255.028 L637.486,255.028 L640.053,260.346 L621.12,260.346 L631.496,281.828 L631.958,282.781 z M631.958,321.979 L632.494,320.871 L637.808,309.865 L626.105,309.865 L631.958,321.979 z M570.35,290.206 L574.016,282.612 L566.682,282.612 L570.35,290.206 z M491.189,325.785 L506.215,294.677 L487.281,294.677 L488.562,292.027 L474.885,292.027 L491.189,325.785 z M491.189,364.983 L501.227,344.197 L482.296,344.197 L483.573,341.548 L479.868,341.548 L491.189,364.983 z M414.96,315.273 L419.396,324.455 L423.832,315.273 L414.96,315.273 z M417.074,290.06 L402.785,290.06 L409.93,304.855 L415.948,292.396 L417.074,290.06 z M380.588,302.261 L386.48,290.06 L374.695,290.06 L380.588,302.261 z M371.121,321.862 L378.598,306.382 L379.438,304.64 L362.807,304.64 L370.688,320.964 L371.121,321.862 z M380.588,341.459 L381.496,339.582 L379.68,339.582 L380.588,341.459 z M407.769,339.582 L409.93,344.054 L412.09,339.582 L407.769,339.582 z M300.811,283.095 L292.937,283.095 L306.339,310.846 L317.514,287.712 L298.581,287.712 L300.811,283.095 z M268.784,299.345 L276.633,283.095 L260.934,283.095 L268.784,299.345 z M259.317,318.945 L266.271,304.55 L252.368,304.55 L259.317,318.945 z M268.784,338.544 L271.646,332.617 L265.922,332.617 L268.784,338.544 z M300.15,337.232 L306.339,350.043 L312.526,337.232 L300.15,337.232 z M200.341,265.309 L204.254,257.203 L196.425,257.203 L200.341,265.309 z M190.875,284.905 L196.37,273.525 L196.945,272.336 L184.802,272.336 L190.875,284.905 z M190.875,324.105 L191.96,321.856 L189.788,321.856 L190.875,324.105 z M225.543,306.725 L235.262,326.85 L246.033,304.55 L243.424,304.55 L244.476,306.725 L225.543,306.725 z M167.703,321.856 L168.876,324.286 L149.946,324.286 L161.126,347.439 L173.483,321.856 L167.703,321.856 z M162.718,272.336 L163.891,274.765 L144.958,274.765 L161.126,308.243 L178.472,272.336 L162.718,272.336 z M131.371,250.589 L136.786,239.383 L125.958,239.383 L131.371,250.589 z M131.371,289.788 L131.798,288.903 L130.944,288.903 L131.371,289.788 z M52.554,247.559 L65.618,220.514 L58.423,220.514 L60.396,224.598 L41.465,224.598 L51.841,246.082 L52.554,247.559 z M52.554,286.756 L55.243,281.194 L58.661,274.119 L46.451,274.119 L52.554,286.756 z M101.004,338.424 L105.33,347.377 L109.655,338.424 L101.004,338.424 z M99.834,319.555 L91.893,319.555 L94.79,325.553 L95.863,327.779 L99.834,319.555 z M96.021,288.903 L105.33,308.179 L114.639,288.903 L96.021,288.903 z M86.906,270.035 L95.863,288.581 L104.82,270.035 L86.906,270.035 z M23.906,274.119 L27.028,280.58 L30.146,274.119 L23.906,274.119 z M18.919,224.598 L27.028,241.384 L35.134,224.598 L18.919,224.598 z M19.048,257.903 L16.075,257.903 L16.443,258.667 L17.561,260.981 L19.048,257.903 z M21.76,242.346 L24.16,247.317 L24.756,246.082 L26.56,242.346 L21.76,242.346 z M661.664,236.477 L661.664,255.028 L651.696,255.028 L661.664,275.672 L661.664,304.55 L656.68,304.55 L661.664,314.873 L661.664,453.127 C453.14,453.338 218.735,455.725 -0,455.968 L-0,147.91 L0.406,147.07 L22.505,192.824 L3.574,192.824 L17.561,221.785 L38.299,178.845 L52.554,208.361 L70.602,170.993 L51.673,170.993 L73.768,125.239 L95.867,170.993 L76.937,170.993 L87.311,192.477 C91.826,201.821 96.338,211.168 100.852,220.514 L81.92,220.514 L105.33,268.98 L119.627,239.383 L100.694,239.383 L122.792,193.628 L140.837,230.99 L141.793,229.011 L161.126,269.045 L181.636,226.583 L190.875,245.709 L209.24,207.682 L190.308,207.682 L212.407,161.929 L234.504,207.682 L215.571,207.682 L225.947,229.164 C230.462,238.511 234.975,247.856 239.49,257.203 L220.559,257.203 L235.262,287.651 L249.2,258.796 L259.317,279.747 L281.618,233.574 L262.687,233.574 L284.784,187.82 L306.883,233.574 L287.95,233.574 L306.339,271.65 L320.679,241.957 L339.263,280.434 L351.487,255.12 L332.555,255.12 L354.654,209.367 L376.753,255.12 L357.82,255.12 L371.121,282.661 L391.468,240.541 L372.535,240.541 L394.633,194.788 L416.731,240.541 L397.799,240.541 L419.396,285.257 L426.997,269.52 L449.096,315.273 L430.163,315.273 L440.539,336.755 C456.068,368.91 450.18,369.265 463.565,341.548 L444.635,341.548 C449.147,332.203 453.66,322.856 458.176,313.509 L468.552,292.027 L449.619,292.027 L471.716,246.274 L491.189,286.588 L509.379,248.924 L531.478,294.677 L512.545,294.677 L522.922,316.16 C527.435,325.504 531.947,334.85 536.462,344.197 L517.531,344.197 L525.411,360.519 L547.48,348.455 L555.364,332.134 L536.432,332.134 C540.944,322.787 545.461,313.44 549.975,304.097 L560.351,282.612 L541.418,282.612 L563.517,236.859 L579.813,270.606 L586.627,256.5 L601.637,287.575 L614.789,260.346 L595.856,260.346 L617.955,214.592 L631.958,243.585 L648.527,209.274 L661.664,236.477 z M51.437,323.641 L52.554,325.956 L52.749,325.553 L53.672,323.641 L51.437,323.641" fill="#505253"/>
      <path d="M0.002,415.858 L128.665,434.322 C164.749,439.499 196.153,439.731 232.313,435.089 L293.829,427.192 C336.103,421.765 372.949,422.88 414.818,430.856 L421.674,432.163 C461.015,439.654 495.568,441.032 535.378,436.691 L661.664,422.92 L661.664,662 L0.002,662 L0.002,415.858" fill="#3C3E3F"/>
    </g>
    <path d="M321.854,618.002 C410.822,618.002 483.384,588.923 483.384,553.272 C483.384,517.619 410.822,488.543 321.854,488.543 C232.889,488.543 160.328,517.619 160.328,553.272 C160.328,588.923 232.889,618.002 321.854,618.002" fill="#505253"/>
    <path d="M229.738,493.25 L229.002,509.907 L394.889,589.125 L436.959,567.692 L229.738,493.25" fill="#A0764C"/>
    <path d="M394.889,589.125 L430.918,576.703 L436.959,567.692 L399.749,578.908 L394.889,589.125" fill="#825A35"/>
    <path d="M399.749,578.908 L436.961,567.692 L285.788,482.403 L229.74,493.25 L399.749,578.908" fill="#B3885B"/>
    <path d="M417.605,573.525 L414.506,574.46 L388.675,558.609 L417.605,573.525 z M276.71,484.159 L274.58,484.571 L331.68,516.267 L276.71,484.159 z M265.069,486.412 L261.773,487.049 L315.162,514.752 L265.069,486.412 z M249.15,489.494 L279.188,505.011 L245.479,490.205 L249.15,489.494 z M429.516,569.933 L378.96,546.855 L425.909,571.023 L429.516,569.933" fill="#A0764C"/>
    <path d="M417.605,573.525 L414.322,578.141 L414.506,574.46 L417.605,573.525 z M429.516,569.933 L425.234,575.477 L425.909,571.023 L429.516,569.933" fill="#5F4025"/>
    <path d="M358.105,557.925 L372.179,565.016 L372.7,578.528 L325.571,556.021 L358.105,557.925" fill="#906841"/>
    <path d="M586.619,55.582 L588.069,60.31 L592.797,61.761 L588.069,63.212 L586.619,67.94 L585.168,63.212 L580.44,61.761 L585.168,60.31 L586.619,55.582 z M563.082,89.712 L564.118,93.087 L567.495,94.126 L564.118,95.163 L563.082,98.539 L562.044,95.163 L558.669,94.126 L562.044,93.087 L563.082,89.712 z M551.313,125.019 L552.073,127.494 L554.549,128.255 L552.073,129.017 L551.313,131.492 L550.551,129.017 L548.076,128.255 L550.551,127.494 L551.313,125.019 z M525.421,160.914 L525.768,162.038 L526.893,162.385 L525.768,162.73 L525.421,163.856 L525.076,162.73 L523.95,162.385 L525.076,162.038 L525.421,160.914 z M456.572,127.372 L457.335,129.848 L459.81,130.608 L457.335,131.37 L456.572,133.846 L455.812,131.37 L453.337,130.608 L455.812,129.848 L456.572,127.372 z M470.695,60.29 L471.317,62.316 L473.345,62.938 L471.317,63.56 L470.695,65.586 L470.074,63.56 L468.048,62.938 L470.074,62.316 L470.695,60.29 z M485.994,79.12 L486.757,81.595 L489.231,82.357 L486.757,83.117 L485.994,85.593 L485.233,83.117 L482.759,82.357 L485.233,81.595 L485.994,79.12 z M501.884,150.322 L502.504,152.348 L504.53,152.97 L502.504,153.592 L501.884,155.617 L501.261,153.592 L499.234,152.97 L501.261,152.348 L501.884,150.322 z M524.243,210.931 L524.728,212.507 L526.305,212.991 L524.728,213.475 L524.243,215.051 L523.759,213.475 L522.184,212.991 L523.759,212.507 L524.243,210.931 z M602.212,148.557 L603.734,153.507 L608.687,155.029 L603.734,156.551 L602.212,161.502 L600.691,156.551 L595.739,155.029 L600.691,153.507 L602.212,148.557 z M362.128,157.383 L362.682,159.184 L364.482,159.736 L362.682,160.29 L362.128,162.091 L361.574,160.29 L359.774,159.736 L361.574,159.184 L362.128,157.383 z M390.372,76.767 L390.65,77.667 L391.551,77.943 L390.65,78.219 L390.372,79.12 L390.099,78.219 L389.196,77.943 L390.099,77.667 L390.372,76.767 z M388.313,119.135 L389.765,123.861 L394.492,125.313 L389.765,126.764 L388.313,131.492 L386.863,126.764 L382.136,125.313 L386.863,123.861 L388.313,119.135 z M415.676,168.563 L416.783,172.165 L420.385,173.271 L416.783,174.378 L415.676,177.979 L414.569,174.378 L410.968,173.271 L414.569,172.165 L415.676,168.563 z M469.52,199.163 L470.833,203.439 L475.108,204.753 L470.833,206.067 L469.52,210.343 L468.205,206.067 L463.928,204.753 L468.205,203.439 L469.52,199.163 z M310.933,137.964 L311.486,139.765 L313.287,140.318 L311.486,140.872 L310.933,142.672 L310.381,140.872 L308.58,140.318 L310.381,139.765 L310.933,137.964 z M304.755,75.002 L305.653,77.927 L308.58,78.826 L305.653,79.724 L304.755,82.651 L303.856,79.724 L300.93,78.826 L303.856,77.927 L304.755,75.002 z M339.474,62.055 L340.234,64.531 L342.709,65.292 L340.234,66.053 L339.474,68.528 L338.711,66.053 L336.236,65.292 L338.711,64.531 L339.474,62.055 z M340.649,117.369 L340.994,118.495 L342.121,118.839 L340.994,119.186 L340.649,120.311 L340.305,119.186 L339.179,118.839 L340.305,118.495 L340.649,117.369 z M245.616,90.3 L246.031,91.65 L247.382,92.066 L246.031,92.48 L245.616,93.831 L245.202,92.48 L243.852,92.066 L245.202,91.65 L245.616,90.3 z M247.087,37.34 L247.847,39.816 L250.324,40.577 L247.847,41.338 L247.087,43.813 L246.326,41.338 L243.852,40.577 L246.326,39.816 L247.087,37.34 z M291.808,18.51 L292.846,21.888 L296.221,22.923 L292.846,23.962 L291.808,27.337 L290.774,23.962 L287.395,22.923 L290.774,21.888 L291.808,18.51 z M394.197,17.922 L396.619,25.8 L404.495,28.22 L396.619,30.64 L394.197,38.518 L391.778,30.64 L383.901,28.22 L391.778,25.8 L394.197,17.922 z M506.002,21.453 L507.04,24.829 L510.415,25.866 L507.04,26.904 L506.002,30.279 L504.966,26.904 L501.589,25.866 L504.966,24.829 L506.002,21.453 z M182.653,95.008 L182.929,95.908 L183.829,96.185 L182.929,96.462 L182.653,97.362 L182.375,96.462 L181.475,96.185 L182.375,95.908 L182.653,95.008 z M150.582,55.582 L151.206,57.608 L153.231,58.23 L151.206,58.852 L150.582,60.879 L149.961,58.852 L147.935,58.23 L149.961,57.608 L150.582,55.582 z M70.554,12.626 L71.315,15.102 L73.791,15.862 L71.315,16.624 L70.554,19.099 L69.794,16.624 L67.318,15.862 L69.794,15.102 L70.554,12.626 z M44.074,40.283 L45.248,44.11 L49.075,45.284 L45.248,46.46 L44.074,50.287 L42.9,46.46 L39.072,45.284 L42.9,44.11 L44.074,40.283 z M28.186,102.657 L28.531,103.784 L29.658,104.128 L28.531,104.474 L28.186,105.6 L27.84,104.474 L26.715,104.128 L27.84,103.784 L28.186,102.657 z M84.972,77.943 L85.801,80.645 L88.502,81.474 L85.801,82.303 L84.972,85.004 L84.141,82.303 L81.44,81.474 L84.141,80.645 L84.972,77.943 z M102.035,100.304 L102.589,102.105 L104.389,102.657 L102.589,103.211 L102.035,105.012 L101.483,103.211 L99.683,102.657 L101.483,102.105 L102.035,100.304 z M123.809,138.553 L125.19,143.054 L129.693,144.438 L125.19,145.82 L123.809,150.322 L122.426,145.82 L117.924,144.438 L122.426,143.054 L123.809,138.553 z M150.876,168.563 L152.536,173.966 L157.938,175.625 L152.536,177.285 L150.876,182.686 L149.218,177.285 L143.816,175.625 L149.218,173.966 L150.876,168.563 z M191.773,153.264 L192.535,155.74 L195.01,156.501 L192.535,157.262 L191.773,159.736 L191.012,157.262 L188.538,156.501 L191.012,155.74 L191.773,153.264 z M226.198,130.903 L227.303,134.504 L230.905,135.611 L227.303,136.717 L226.198,140.318 L225.091,136.717 L221.49,135.611 L225.091,134.504 L226.198,130.903 z M262.093,150.322 L262.646,152.123 L264.447,152.675 L262.646,153.229 L262.093,155.029 L261.539,153.229 L259.739,152.675 L261.539,152.123 L262.093,150.322 z M266.211,185.628 L267.458,189.681 L271.507,190.924 L267.458,192.17 L266.211,196.22 L264.968,192.17 L260.915,190.924 L264.968,189.681 L266.211,185.628 z M241.202,229.762 L242.654,234.489 L247.382,235.94 L242.654,237.392 L241.202,242.119 L239.752,237.392 L235.025,235.94 L239.752,234.489 L241.202,229.762 z M179.123,33.221 L179.952,35.922 L182.653,36.753 L179.952,37.582 L179.123,40.283 L178.292,37.582 L175.59,36.753 L178.292,35.922 L179.123,33.221 z M197.952,59.113 L198.368,60.464 L199.718,60.879 L198.368,61.292 L197.952,62.644 L197.539,61.292 L196.186,60.879 L197.539,60.464 L197.952,59.113 z M110.569,22.042 L111.053,23.616 L112.628,24.101 L111.053,24.585 L110.569,26.16 L110.084,24.585 L108.51,24.101 L110.084,23.616 L110.569,22.042 z M613.693,69.411 L614.107,70.762 L615.458,71.176 L614.107,71.59 L613.693,72.941 L613.277,71.59 L611.928,71.176 L613.277,70.762 L613.693,69.411 z M624.727,109.131 L625.798,112.62 L629.287,113.691 L625.798,114.764 L624.727,118.252 L623.654,114.764 L620.166,113.691 L623.654,112.62 L624.727,109.131 z M641.35,149.439 L642.111,151.915 L644.587,152.675 L642.111,153.437 L641.35,155.912 L640.589,153.437 L638.114,152.675 L640.589,151.915 L641.35,149.439 z M636.789,186.808 L637.584,189.395 L640.174,190.189 L637.584,190.985 L636.789,193.572 L635.994,190.985 L633.406,190.189 L635.994,189.395 L636.789,186.808 z M553.966,190.042 L554.38,191.393 L555.732,191.807 L554.38,192.223 L553.966,193.572 L553.551,192.223 L552.2,191.807 L553.551,191.393 L553.966,190.042 z M584.564,112.367 L585.672,115.968 L589.272,117.074 L585.672,118.181 L584.564,121.782 L583.459,118.181 L579.857,117.074 L583.459,115.968 L584.564,112.367 z M638.995,15.568 L640.447,20.295 L645.175,21.747 L640.447,23.198 L638.995,27.926 L637.543,23.198 L632.815,21.747 L637.543,20.295 L638.995,15.568 z M11.861,70.588 L12.173,71.601 L13.185,71.912 L12.173,72.224 L11.861,73.235 L11.55,72.224 L10.537,71.912 L11.55,71.601 L11.861,70.588 z M22.454,116.78 L23.251,119.37 L25.836,120.164 L23.251,120.96 L22.454,123.548 L21.659,120.96 L19.069,120.164 L21.659,119.37 L22.454,116.78 z M43.195,143.848 L43.472,144.749 L44.373,145.025 L43.472,145.302 L43.195,146.203 L42.919,145.302 L42.019,145.025 L42.919,144.749 L43.195,143.848 z M48.198,72.353 L49.098,75.279 L52.022,76.177 L49.098,77.076 L48.198,80.003 L47.298,77.076 L44.373,76.177 L47.298,75.279 L48.198,72.353 z M573.968,27.337 L574.384,28.688 L575.732,29.102 L574.384,29.519 L573.968,30.868 L573.554,29.519 L572.201,29.102 L573.554,28.688 L573.968,27.337" fill="#DDE0E2"/>
    <path d="M445.928,523.394 L440.867,540.431 L230.933,584.807 L192.319,553.987 L445.928,523.394" fill="#825A35"/>
    <path d="M230.933,584.807 L195.772,564.424 L192.319,553.987 L229.2,573.404 L230.933,584.807" fill="#A0764C"/>
    <path d="M229.2,573.404 L192.317,553.987 L388.246,500.276 L445.928,523.394 L229.2,573.404" fill="#B3885B"/>
    <path d="M211.502,564.087 L214.575,565.704 L248.502,555.232 L211.502,564.087 z M397.588,504.021 L399.781,504.898 L325.958,524.661 L397.588,504.021 z M409.565,508.821 L412.96,510.179 L344.614,526.701 L409.565,508.821 z M425.953,515.387 L387.522,524.613 L429.729,516.903 L425.953,515.387 z M199.695,557.872 L263.302,545.426 L203.271,559.754 L199.695,557.872" fill="#A0764C"/>
    <path d="M211.502,564.087 L213.478,569.473 L214.575,565.704 L211.502,564.087 z M199.695,557.872 L202.444,564.413 L203.271,559.754 L199.695,557.872" fill="#825A35"/>
    <path d="M372.179,565.016 L417.07,556.471 L402.877,548.462 L358.105,557.925 L372.179,565.016" fill="#A0764C"/>
    <path d="M392.74,561.103 L388.675,558.607 L393.303,560.996 L392.74,561.103 z M405.039,558.76 L388.934,551.407 L388.133,551.577 L402.887,559.17 L405.039,558.76" fill="#825A35"/>
    <path d="M279.48,392.921 C223.578,388.802 260.65,344.668 259.179,322.014 C286.835,334.667 266.24,369.383 279.48,392.921" fill="#E8A52D"/>
    <path d="M323.74,517.96 C211.196,516.696 252.41,430.197 208.093,392.042 C228.487,387.235 260.917,397.877 272.09,413.814 C294.815,370.073 310.522,326.332 275.536,280.237 C329.796,287.712 373.378,340.846 360.701,389.099 C382.616,369.091 403.716,360.265 435.291,372.034 C395.249,419.606 436.281,519.228 323.74,517.96" fill="#E8A52D"/>
    <path d="M267.565,274.665 C245.064,273.008 249.25,253.478 259.394,246.124 C257.582,256.806 262.236,265.191 267.565,274.665" fill="#E8A52D"/>
    <path d="M367.436,374.571 C388.296,363.856 378.223,342.366 366.287,337.609 C371.348,349.546 369.541,361.284 367.436,374.571" fill="#E8A52D"/>
    <path d="M256.337,320.14 C244.74,314.183 250.341,302.236 256.975,299.591 C254.165,306.23 255.167,312.753 256.337,320.14" fill="#E8A52D"/>
    <path d="M384.986,359.373 C405.066,356.16 412.131,332.623 382.975,326.983 C391.84,337.446 388.675,347.729 384.986,359.373" fill="#E8A52D"/>
    <path d="M322.778,513.981 C263.037,513.311 254.609,467.099 246.679,441.548 C258.394,454.974 276.783,456.899 289.778,454.796 C304.489,430.989 321.692,399.106 313.078,358.366 C336.29,387.636 349.486,406.19 348.643,440.338 C362.042,442.074 377.791,431.013 396.115,407.096 C393.104,442.353 382.519,514.652 322.778,513.981" fill="#FADA3C"/>
    <path d="M321.951,507.442 C298.003,507.173 294.624,488.649 291.444,478.405 C296.141,483.788 303.514,484.557 308.722,483.716 C314.618,474.171 321.516,461.391 318.064,445.06 C327.368,456.793 332.658,464.23 332.321,477.92 C337.692,478.616 344.006,474.181 351.352,464.594 C350.143,478.728 345.902,507.712 321.951,507.442" fill="#FDF07F"/>
    <path d="M319.939,194.048 C297.436,192.391 301.619,172.861 311.768,165.507 C309.952,176.189 314.608,184.574 319.939,194.048" fill="#E8A52D"/>
    <path d="M288.59,242.218 C309.448,231.501 299.376,210.013 287.441,205.257 C292.501,217.194 290.695,228.931 288.59,242.218" fill="#E8A52D"/>
    <path d="M279.875,151.845 C268.278,145.888 273.879,133.94 280.512,131.296 C277.702,137.934 278.704,144.459 279.875,151.845" fill="#E8A52D"/>
    <path d="M318.778,268.884 C307.182,262.928 312.781,250.98 319.415,248.335 C316.604,254.974 317.606,261.497 318.778,268.884" fill="#E8A52D"/>
  </g>
</svg>
